# xmcd CD database file
# Copyright (C) 1996 Ti Kan
#
# Track frame offsets:
# 	150
# 	16512
# 	34342
# 	48617
# 	64250
# 	81012
# 	99167
# 	117490
# 	133922
# 	146907
#
# Disc length: 2195 seconds
#
# Revision: 1
# Processed by: cddbd v1.4b41PL1 Copyright (c) Steve Scherf et al.
# Submitted via: DiscPlay 3.3.1
#
DISCID=8a08910a
DTITLE=Sawyer Brown - This Thing Called Wantin' and Havin' It All
DYEAR=1900
DGENRE=
TTITLE0=Nothin' Less Than Love
TTITLE1=Big Picture
TTITLE2=I Will Leave The Light On
TTITLE3=(This Thing Called) Wantin' And Havin' It All
TTITLE4=Another Mile
TTITLE5='Round Here
TTITLE6=She's Gettin' There
TTITLE7=Treat Her Right
TTITLE8=Like A John Deere
TTITLE9=Small Town Hero
EXTD=
EXTT0=
EXTT1=
EXTT2=
EXTT3=
EXTT4=
EXTT5=
EXTT6=
EXTT7=
EXTT8=
EXTT9=
PLAYORDER=
